name Walk7.mot
datacolumns 19
datarows 10
range 3.74400000 3.75300000
endheader

                time	   L_ground_force_vx	   L_ground_force_vy	   L_ground_force_vz	   L_ground_force_px	   L_ground_force_py	   L_ground_force_pz	   R_ground_force_vx	   R_ground_force_vy	   R_ground_force_vz	   R_ground_force_px	   R_ground_force_py	   R_ground_force_pz	   L_ground_torque_x	   L_ground_torque_y	   L_ground_torque_z	   R_ground_torque_x	   R_ground_torque_y	   R_ground_torque_z	
          3.74400000	          0.00000000	          0.00000000	          0.00000000	         -0.00000000	          0.00000000	         -0.00000000	         14.81954277	         69.95509561	         -1.29077558	          0.19778253	          0.00000000	          0.10184017	          0.00000000	         -0.00000000	          0.00000000	          0.00000000	         -3.60094805	          0.00000000	
          3.74500000	          0.00000000	          0.00000000	          0.00000000	         -0.00000000	          0.00000000	         -0.00000000	         13.76419711	         64.82968333	         -1.10824402	          0.19189939	          0.00000000	          0.09860280	          0.00000000	         -0.00000000	          0.00000000	          0.00000000	         -3.40206742	          0.00000000	
          3.74600000	          0.00000000	          0.00000000	          0.00000000	         -0.00000000	          0.00000000	         -0.00000000	         12.74606273	         59.90070665	         -0.93750441	          0.18587549	          0.00000000	          0.09530778	          0.00000000	         -0.00000000	          0.00000000	          0.00000000	         -3.20749745	          0.00000000	
          3.74700000	          0.00000000	          0.00000000	          0.00000000	         -0.00000000	          0.00000000	         -0.00000000	         11.76591136	         55.16838726	         -0.77808238	          0.17972414	          0.00000000	          0.09196228	          0.00000000	         -0.00000000	          0.00000000	          0.00000000	         -3.01752486	          0.00000000	
          3.74800000	          0.00000000	          0.00000000	          0.00000000	         -0.00000000	          0.00000000	         -0.00000000	         10.82432336	         50.63252085	         -0.62951246	          0.17346060	          0.00000000	          0.08857433	          0.00000000	         -0.00000000	          0.00000000	          0.00000000	         -2.83241310	          0.00000000	
          3.74900000	          0.00000000	          0.00000000	          0.00000000	         -0.00000000	          0.00000000	         -0.00000000	          9.92168408	         46.29250011	         -0.49134408	          0.16710219	          0.00000000	          0.08515284	          0.00000000	         -0.00000000	          0.00000000	          0.00000000	         -2.65240152	          0.00000000	
          3.75000000	          0.00000000	          0.00000000	          0.00000000	         -0.00000000	          0.00000000	         -0.00000000	          9.05818394	         42.14733412	         -0.36314614	          0.16066849	          0.00000000	          0.08170773	          0.00000000	         -0.00000000	          0.00000000	          0.00000000	         -2.47770468	          0.00000000	
          3.75100000	          0.00000000	          0.00000000	          0.00000000	         -0.00000000	          0.00000000	         -0.00000000	          8.23382326	         38.19565872	         -0.24450943	          0.15418152	          0.00000000	          0.07824996	          0.00000000	         -0.00000000	          0.00000000	          0.00000000	         -2.30851149	          0.00000000	
          3.75200000	          0.00000000	          0.00000000	          0.00000000	         -0.00000000	          0.00000000	         -0.00000000	          7.44842482	         34.43572673	         -0.13504536	          0.14766550	          0.00000000	          0.07479144	          0.00000000	         -0.00000000	          0.00000000	          0.00000000	         -2.14498402	          0.00000000	
          3.75300000	          0.00000000	          0.00000000	          0.00000000	         -0.00000000	          0.00000000	         -0.00000000	          6.70165628	         30.86536731	         -0.03437942	          0.14114581	          0.00000000	          0.07134449	          0.00000000	         -0.00000000	          0.00000000	          0.00000000	         -1.98725542	          0.00000000	
